<svg width="28" height="28" viewBox="0 0 28 28" fill="none" xmlns="http://www.w3.org/2000/svg">
<rect width="28" height="28" rx="8" fill="black"/>
<path d="M15.6472 14L18.662 10.9852C19.1127 10.5346 19.1127 9.78866 18.662 9.338C18.2113 8.88733 17.4654 8.88733 17.0148 9.338L14 12.3528L10.9852 9.338C10.5346 8.88733 9.78866 8.88733 9.338 9.338C8.88733 9.78866 8.88733 10.5346 9.338 10.9852L12.3528 14L9.338 17.0148C8.88733 17.4654 8.88733 18.2113 9.338 18.662C9.5711 18.8951 9.86636 19.0039 10.1616 19.0039C10.4569 19.0039 10.7521 18.8951 10.9852 18.662L14 15.6472L17.0148 18.662C17.2479 18.8951 17.5431 19.0039 17.8384 19.0039C18.1336 19.0039 18.4289 18.8951 18.662 18.662C19.1127 18.2113 19.1127 17.4654 18.662 17.0148L15.6472 14Z" fill="white"/>
</svg>
