<svg width="28" height="28" viewBox="0 0 28 28" fill="none" xmlns="http://www.w3.org/2000/svg">
<g clip-path="url(#clip0_16_138)">
<path d="M14 0C11.2311 0 8.52431 0.821086 6.22202 2.35943C3.91973 3.89777 2.12532 6.08427 1.06569 8.64243C0.00606219 11.2006 -0.271185 14.0155 0.269009 16.7313C0.809202 19.447 2.14257 21.9416 4.10051 23.8995C6.05844 25.8574 8.553 27.1908 11.2687 27.731C13.9845 28.2712 16.7994 27.9939 19.3576 26.9343C21.9157 25.8747 24.1022 24.0803 25.6406 21.778C27.1789 19.4757 28 16.7689 28 14C27.996 10.2882 26.5197 6.72958 23.8951 4.10494C21.2704 1.4803 17.7118 0.0040146 14 0V0ZM15.1667 13.8588C15.1668 14.0566 15.1166 14.2511 15.0209 14.4242C14.9252 14.5973 14.7871 14.7432 14.6195 14.8482L10.1395 17.6482C10.0093 17.7295 9.8643 17.7844 9.71285 17.8098C9.5614 17.8351 9.40645 17.8303 9.25684 17.7958C9.10723 17.7612 8.96589 17.6975 8.84089 17.6083C8.7159 17.5192 8.60969 17.4062 8.52834 17.276C8.44698 17.1458 8.39207 17.0008 8.36675 16.8493C8.34142 16.6979 8.34618 16.5429 8.38074 16.3933C8.41529 16.2437 8.47898 16.1024 8.56816 15.9774C8.65735 15.8524 8.77028 15.7462 8.9005 15.6648L12.8333 13.2125V8.16667C12.8333 7.85725 12.9563 7.5605 13.175 7.34171C13.3938 7.12292 13.6906 7 14 7C14.3094 7 14.6062 7.12292 14.825 7.34171C15.0438 7.5605 15.1667 7.85725 15.1667 8.16667V13.8588Z" fill="black"/>
</g>
<defs>
<clipPath id="clip0_16_138">
<rect width="28" height="28" fill="white"/>
</clipPath>
</defs>
</svg>
