<svg width="28" height="28" viewBox="0 0 28 28" fill="none" xmlns="http://www.w3.org/2000/svg">
<g clip-path="url(#clip0_16_135)">
<path d="M14 0.0498047C10.9129 0.053201 7.95323 1.28096 5.77023 3.46374C3.58723 5.64652 2.35917 8.60607 2.35547 11.6931C2.35547 14.6915 4.67714 19.3838 9.2563 25.6395C9.80144 26.3863 10.5152 26.9938 11.3395 27.4127C12.1638 27.8315 13.0754 28.0499 14 28.0499C14.9246 28.0499 15.8361 27.8315 16.6604 27.4127C17.4847 26.9938 18.1985 26.3863 18.7436 25.6395C23.3228 19.3838 25.6445 14.6915 25.6445 11.6931C25.6408 8.60607 24.4127 5.64652 22.2297 3.46374C20.0467 1.28096 17.087 0.053201 14 0.0498047ZM14 16.3341C13.077 16.3341 12.1747 16.0604 11.4073 15.5477C10.6399 15.0349 10.0417 14.3061 9.68853 13.4533C9.33532 12.6006 9.24291 11.6623 9.42297 10.7571C9.60303 9.85181 10.0475 9.02029 10.7001 8.36764C11.3528 7.715 12.1843 7.27054 13.0895 7.09047C13.9948 6.91041 14.9331 7.00283 15.7858 7.35603C16.6385 7.70924 17.3674 8.30738 17.8802 9.07481C18.3929 9.84224 18.6666 10.7445 18.6666 11.6675C18.6666 12.9051 18.175 14.0921 17.2998 14.9673C16.4246 15.8425 15.2376 16.3341 14 16.3341Z" fill="black"/>
</g>
<defs>
<clipPath id="clip0_16_135">
<rect width="28" height="28" fill="white"/>
</clipPath>
</defs>
</svg>
