<svg width="28" height="28" viewBox="0 0 28 28" fill="none" xmlns="http://www.w3.org/2000/svg">
<g clip-path="url(#clip0_16_141)">
<path d="M26.8334 12.8325C26.5239 12.8325 26.2272 12.7095 26.0084 12.4907C25.7896 12.272 25.6667 11.9752 25.6667 11.6658C25.6642 9.1912 24.6801 6.81866 22.9303 5.06886C21.1805 3.31905 18.808 2.33493 16.3334 2.33246C16.0239 2.33246 15.7272 2.20954 15.5084 1.99075C15.2896 1.77196 15.1667 1.47521 15.1667 1.16579C15.1667 0.856371 15.2896 0.559625 15.5084 0.340832C15.7272 0.12204 16.0239 -0.000876744 16.3334 -0.000876744C19.4265 0.00252012 22.392 1.23277 24.5792 3.41996C26.7664 5.60715 27.9966 8.57264 28 11.6658C28 11.9752 27.8771 12.272 27.6583 12.4907C27.4395 12.7095 27.1428 12.8325 26.8334 12.8325ZM23.3334 11.6658C23.3334 9.80928 22.5959 8.0288 21.2831 6.71604C19.9704 5.40329 18.1899 4.66579 16.3334 4.66579C16.0239 4.66579 15.7272 4.78871 15.5084 5.0075C15.2896 5.22629 15.1667 5.52304 15.1667 5.83246C15.1667 6.14188 15.2896 6.43862 15.5084 6.65742C15.7272 6.87621 16.0239 6.99912 16.3334 6.99912C17.571 6.99912 18.758 7.49079 19.6332 8.36596C20.5084 9.24113 21 10.4281 21 11.6658C21 11.9752 21.123 12.272 21.3417 12.4907C21.5605 12.7095 21.8573 12.8325 22.1667 12.8325C22.4761 12.8325 22.7729 12.7095 22.9917 12.4907C23.2105 12.272 23.3334 11.9752 23.3334 11.6658ZM25.8802 25.8571L26.9419 24.6333C27.6176 23.9554 27.9971 23.0372 27.9971 22.08C27.9971 21.1229 27.6176 20.2047 26.9419 19.5268C26.9057 19.4906 24.0987 17.3311 24.0987 17.3311C23.425 16.6898 22.5302 16.3328 21.6 16.3341C20.6699 16.3354 19.7761 16.695 19.1042 17.3381L16.8805 19.2118C15.0654 18.4606 13.4166 17.3582 12.0287 15.9679C10.6408 14.5776 9.54129 12.9269 8.7932 11.1105L10.6599 8.89379C11.3035 8.22199 11.6635 7.32798 11.6651 6.39759C11.6666 5.46721 11.3095 4.57202 10.668 3.89812C10.668 3.89812 8.5062 1.09462 8.47004 1.05846C7.8044 0.388496 6.9019 0.00731561 5.95753 -0.00272616C5.01317 -0.0127679 4.10277 0.349135 3.42304 1.00479L2.08137 2.17146C-5.84496 11.3671 11.2234 28.3036 20.7224 27.9991C21.6816 28.0047 22.6322 27.818 23.5181 27.4501C24.4039 27.0822 25.2071 26.5406 25.8802 25.8571Z" fill="black"/>
</g>
<defs>
<clipPath id="clip0_16_141">
<rect width="28" height="28" fill="white"/>
</clipPath>
</defs>
</svg>
