<svg width="28" height="28" viewBox="0 0 28 28" fill="none" xmlns="http://www.w3.org/2000/svg">
<g clip-path="url(#clip0_16_132)">
<path d="M27.9463 6.46582L18.1253 16.2868C17.0303 17.3791 15.5467 17.9925 14 17.9925C12.4533 17.9925 10.9697 17.3791 9.87466 16.2868L0.053659 6.46582C0.0373257 6.65015 -7.62939e-06 6.81699 -7.62939e-06 7.00015V21.0002C0.00184487 22.5467 0.617021 24.0293 1.71058 25.1229C2.80414 26.2165 4.2868 26.8316 5.83333 26.8335H22.1667C23.7132 26.8316 25.1958 26.2165 26.2894 25.1229C27.383 24.0293 27.9981 22.5467 28 21.0002V7.00015C28 6.81699 27.9627 6.65015 27.9463 6.46582Z" fill="black"/>
<path d="M16.4757 14.6363L27.1321 3.97885C26.6158 3.12289 25.8877 2.41439 25.018 1.9217C24.1483 1.42901 23.1663 1.16875 22.1667 1.16602H5.83338C4.83381 1.16875 3.8518 1.42901 2.98208 1.9217C2.11236 2.41439 1.38427 3.12289 0.86805 3.97885L11.5244 14.6363C12.1819 15.2912 13.0721 15.6589 14.0001 15.6589C14.928 15.6589 15.8182 15.2912 16.4757 14.6363Z" fill="black"/>
</g>
<defs>
<clipPath id="clip0_16_132">
<rect width="28" height="28" fill="white"/>
</clipPath>
</defs>
</svg>
