<svg width="30" height="30" viewBox="0 0 30 30" fill="none" xmlns="http://www.w3.org/2000/svg">
<path d="M21.285 0H8.715C3.255 0 0 3.255 0 8.715V21.27C0 26.745 3.255 30 8.715 30H21.27C26.73 30 29.985 26.745 29.985 21.285V8.715C30 3.255 26.745 0 21.285 0ZM22.5 22.875H7.5C6.885 22.875 6.375 22.365 6.375 21.75C6.375 21.135 6.885 20.625 7.5 20.625H22.5C23.115 20.625 23.625 21.135 23.625 21.75C23.625 22.365 23.115 22.875 22.5 22.875ZM22.5 16.125H7.5C6.885 16.125 6.375 15.615 6.375 15C6.375 14.385 6.885 13.875 7.5 13.875H22.5C23.115 13.875 23.625 14.385 23.625 15C23.625 15.615 23.115 16.125 22.5 16.125ZM22.5 9.375H7.5C6.885 9.375 6.375 8.865 6.375 8.25C6.375 7.635 6.885 7.125 7.5 7.125H22.5C23.115 7.125 23.625 7.635 23.625 8.25C23.625 8.865 23.115 9.375 22.5 9.375Z" fill="#FCDB0F"/>
</svg>
