<svg width="43" height="43" viewBox="0 0 43 43" fill="none" xmlns="http://www.w3.org/2000/svg">
<g clip-path="url(#clip0_16_125)">
<path d="M21.5796 42.6993C33.4978 42.6993 43.1593 33.0378 43.1593 21.1197C43.1593 9.20158 33.4978 -0.459961 21.5796 -0.459961C9.66154 -0.459961 0 9.20158 0 21.1197C0 33.0378 9.66154 42.6993 21.5796 42.6993Z" fill="url(#paint0_linear_16_125)"/>
<path d="M21.5799 10.5048C25.0369 10.5048 25.4465 10.518 26.8119 10.5802C28.0742 10.6379 28.7597 10.8488 29.2162 11.0261C29.8204 11.261 30.2517 11.5415 30.7047 11.9946C31.1579 12.4477 31.4385 12.879 31.6734 13.4833C31.8506 13.9397 32.0616 14.6252 32.1192 15.8876C32.1815 17.2529 32.1948 17.6625 32.1948 21.1196C32.1948 24.5769 32.1815 24.9863 32.1192 26.3516C32.0616 27.6139 31.8506 28.2997 31.6734 28.7559C31.4385 29.3602 31.1579 29.7915 30.7049 30.2447C30.2517 30.6977 29.8204 30.9783 29.2162 31.2131C28.7597 31.3906 28.0742 31.6014 26.8119 31.659C25.4467 31.7212 25.0373 31.7345 21.5799 31.7345C18.1222 31.7345 17.713 31.7212 16.3478 31.659C15.0854 31.6014 14.3998 31.3906 13.9436 31.2131C13.3392 30.9783 12.9079 30.6977 12.4549 30.2447C12.0018 29.7915 11.7211 29.3602 11.4863 28.7559C11.309 28.2997 11.098 27.6139 11.0404 26.3516C10.9782 24.9863 10.965 24.5769 10.965 21.1196C10.965 17.6625 10.9782 17.2529 11.0404 15.8876C11.098 14.6252 11.309 13.9397 11.4863 13.4833C11.7211 12.879 12.0017 12.4477 12.4549 11.9947C12.9079 11.5415 13.3392 11.261 13.9436 11.0261C14.3998 10.8488 15.0854 10.6379 16.3478 10.5802C17.7131 10.518 18.1226 10.5048 21.5799 10.5048ZM21.5799 8.17188C18.0634 8.17188 17.6225 8.18677 16.2414 8.24978C14.8634 8.31262 13.9221 8.53154 13.0986 8.85158C12.247 9.18247 11.525 9.62518 10.8052 10.345C10.0854 11.0648 9.64264 11.7869 9.31181 12.6383C8.9917 13.4619 8.7728 14.4032 8.70995 15.7813C8.64694 17.1623 8.63203 17.6033 8.63203 21.1196C8.63203 24.6361 8.64694 25.0769 8.70995 26.4578C8.7728 27.8361 8.9917 28.7772 9.31181 29.6009C9.64264 30.4522 10.0854 31.1744 10.8052 31.8942C11.525 32.614 12.247 33.0568 13.0986 33.3876C13.9221 33.7077 14.8634 33.9265 16.2414 33.9893C17.6225 34.0525 18.0634 34.0674 21.5799 34.0674C25.0961 34.0674 25.5371 34.0525 26.9183 33.9893C28.2963 33.9265 29.2375 33.7077 30.0612 33.3876C30.9125 33.0568 31.6346 32.614 32.3544 31.8942C33.0742 31.1744 33.517 30.4522 33.848 29.6009C34.1679 28.7772 34.3868 27.8361 34.4498 26.4578C34.5128 25.0769 34.5276 24.6361 34.5276 21.1196C34.5276 17.6033 34.5128 17.1623 34.4498 15.7813C34.3868 14.4032 34.1679 13.4619 33.848 12.6383C33.517 11.7869 33.0742 11.0648 32.3544 10.345C31.6346 9.62518 30.9125 9.18247 30.0612 8.85158C29.2375 8.53154 28.2963 8.31262 26.9183 8.24978C25.5371 8.18677 25.0961 8.17188 21.5799 8.17188Z" fill="white"/>
<path d="M21.5855 14.4775C17.9134 14.4775 14.9366 17.4543 14.9366 21.1263C14.9366 24.7985 17.9134 27.7753 21.5855 27.7753C25.2576 27.7753 28.2344 24.7985 28.2344 21.1263C28.2344 17.4543 25.2576 14.4775 21.5855 14.4775ZM21.5855 25.4422C19.2019 25.4422 17.2695 23.51 17.2695 21.1263C17.2695 18.7428 19.2019 16.8105 21.5855 16.8105C23.969 16.8105 25.9015 18.7428 25.9015 21.1263C25.9015 23.51 23.969 25.4422 21.5855 25.4422Z" fill="white"/>
<path d="M30.0506 14.2091C30.0506 15.0671 29.355 15.7627 28.4969 15.7627C27.6388 15.7627 26.9432 15.0671 26.9432 14.2091C26.9432 13.351 27.6388 12.6553 28.4969 12.6553C29.355 12.6553 30.0506 13.351 30.0506 14.2091Z" fill="white"/>
</g>
<defs>
<linearGradient id="paint0_linear_16_125" x1="21.5796" y1="-0.459961" x2="21.5796" y2="42.6993" gradientUnits="userSpaceOnUse">
<stop stop-color="#FEDA75"/>
<stop offset="0.244792" stop-color="#FA7E1E"/>
<stop offset="0.494792" stop-color="#D62976"/>
<stop offset="0.739583" stop-color="#962FBF"/>
<stop offset="1" stop-color="#4F5BD5"/>
</linearGradient>
<clipPath id="clip0_16_125">
<rect width="43" height="43" fill="white"/>
</clipPath>
</defs>
</svg>
