<svg width="35" height="35" viewBox="0 0 35 35" fill="none" xmlns="http://www.w3.org/2000/svg">
<path fill-rule="evenodd" clip-rule="evenodd" d="M17.5 0C7.83502 0 0 7.83502 0 17.5C0 27.165 7.83502 35 17.5 35C27.165 35 35 27.165 35 17.5C35 7.83502 27.165 0 17.5 0ZM13.6524 8.22306C14.648 8.17775 14.9661 8.16667 17.5009 8.16667H17.498C20.0335 8.16667 20.3505 8.17775 21.3461 8.22306C22.3397 8.26856 23.0183 8.42586 23.6133 8.65667C24.2278 8.89487 24.7469 9.21376 25.2661 9.73293C25.7853 10.2517 26.1042 10.7724 26.3433 11.3863C26.5728 11.9798 26.7303 12.658 26.7769 13.6516C26.8217 14.6472 26.8333 14.9653 26.8333 17.5001C26.8333 20.0349 26.8217 20.3522 26.7769 21.3478C26.7303 22.341 26.5728 23.0195 26.3433 23.6131C26.1042 24.2268 25.7853 24.7475 25.2661 25.2663C24.7475 25.7855 24.2276 26.1051 23.6139 26.3435C23.02 26.5743 22.341 26.7316 21.3474 26.7771C20.3518 26.8224 20.0347 26.8335 17.4997 26.8335C14.9651 26.8335 14.6472 26.8224 13.6516 26.7771C12.6582 26.7316 11.9798 26.5743 11.3859 26.3435C10.7724 26.1051 10.2517 25.7855 9.73313 25.2663C9.21415 24.7475 8.89526 24.2268 8.65667 23.6129C8.42606 23.0195 8.26875 22.3412 8.22306 21.3476C8.17795 20.352 8.16667 20.0349 8.16667 17.5001C8.16667 14.9653 8.17833 14.647 8.22286 13.6514C8.26758 12.6582 8.42509 11.9798 8.65648 11.3861C8.89565 10.7724 9.21454 10.2517 9.73371 9.73293C10.2525 9.21396 10.7732 8.89506 11.3871 8.65667C11.9805 8.42586 12.6588 8.26856 13.6524 8.22306Z" fill="white"/>
<path fill-rule="evenodd" clip-rule="evenodd" d="M16.6635 9.84863C16.8261 9.84838 17.001 9.84846 17.1898 9.84854L17.5008 9.84863C19.9929 9.84863 20.2882 9.85758 21.2723 9.9023C22.1823 9.94391 22.6762 10.096 23.0052 10.2237C23.4408 10.3929 23.7513 10.5951 24.0778 10.9218C24.4045 11.2485 24.6067 11.5596 24.7762 11.9951C24.904 12.3237 25.0562 12.8176 25.0977 13.7276C25.1424 14.7115 25.1521 15.0071 25.1521 17.498C25.1521 19.9888 25.1424 20.2844 25.0977 21.2683C25.0561 22.1783 24.904 22.6722 24.7762 23.0008C24.6071 23.4364 24.4045 23.7465 24.0778 24.073C23.7511 24.3996 23.441 24.6019 23.0052 24.771C22.6766 24.8994 22.1823 25.051 21.2723 25.0927C20.2884 25.1374 19.9929 25.1471 17.5008 25.1471C15.0086 25.1471 14.7132 25.1374 13.7294 25.0927C12.8193 25.0507 12.3254 24.8986 11.9962 24.7708C11.5607 24.6017 11.2496 24.3994 10.9229 24.0728C10.5962 23.7461 10.394 23.4358 10.2245 23C10.0967 22.6714 9.94445 22.1775 9.90303 21.2675C9.85831 20.2836 9.84937 19.988 9.84937 17.4956C9.84937 15.0032 9.85831 14.7092 9.90303 13.7253C9.94464 12.8153 10.0967 12.3214 10.2245 11.9924C10.3936 11.5568 10.5962 11.2457 10.9229 10.9191C11.2496 10.5924 11.5607 10.3902 11.9962 10.2206C12.3253 10.0923 12.8193 9.9406 13.7294 9.8988C14.5904 9.85991 14.924 9.84824 16.6635 9.8463V9.84863ZM22.4829 11.3984C21.8646 11.3984 21.3629 11.8995 21.3629 12.518C21.3629 13.1363 21.8646 13.638 22.4829 13.638C23.1013 13.638 23.603 13.1363 23.603 12.518C23.603 11.8997 23.1013 11.398 22.4829 11.398V11.3984ZM12.7077 17.5001C12.7077 14.8531 14.8538 12.707 17.5008 12.707H17.5006C20.1476 12.707 22.2932 14.8531 22.2932 17.5001C22.2932 20.1471 20.1478 22.2922 17.5008 22.2922C14.8538 22.2922 12.7077 20.1471 12.7077 17.5001Z" fill="white"/>
<path d="M17.5009 14.3889C19.219 14.3889 20.6121 15.7818 20.6121 17.5001C20.6121 19.2182 19.219 20.6112 17.5009 20.6112C15.7826 20.6112 14.3898 19.2182 14.3898 17.5001C14.3898 15.7818 15.7826 14.3889 17.5009 14.3889Z" fill="white"/>
</svg>
