<svg width="35" height="35" viewBox="0 0 35 35" fill="none" xmlns="http://www.w3.org/2000/svg">
<path d="M17.5 2.91667C11.8563 2.91667 7.29167 7.48126 7.29167 13.125C7.29167 20.7813 17.5 32.0833 17.5 32.0833C17.5 32.0833 27.7083 20.7813 27.7083 13.125C27.7083 7.48126 23.1438 2.91667 17.5 2.91667ZM17.5 16.7708C16.5331 16.7708 15.6057 16.3867 14.922 15.703C14.2383 15.0193 13.8542 14.0919 13.8542 13.125C13.8542 12.1581 14.2383 11.2307 14.922 10.547C15.6057 9.86329 16.5331 9.47917 17.5 9.47917C18.4669 9.47917 19.3943 9.86329 20.078 10.547C20.7617 11.2307 21.1458 12.1581 21.1458 13.125C21.1458 14.0919 20.7617 15.0193 20.078 15.703C19.3943 16.3867 18.4669 16.7708 17.5 16.7708Z" fill="white"/>
</svg>
