<svg width="44" height="44" viewBox="0 0 44 44" fill="none" xmlns="http://www.w3.org/2000/svg">
<g clip-path="url(#clip0_16_121)">
<path d="M44.0061 22.1197C44.0061 10.2016 34.3446 0.540039 22.4265 0.540039C10.5084 0.540039 0.846825 10.2016 0.846825 22.1197C0.846825 34.0378 10.5084 43.6993 22.4265 43.6993C34.3446 43.6993 44.0061 34.0378 44.0061 22.1197Z" fill="#419FD9"/>
<path d="M44.0061 22.1197C44.0061 10.2016 34.3446 0.540039 22.4265 0.540039C10.5084 0.540039 0.846825 10.2016 0.846825 22.1197C0.846825 34.0378 10.5084 43.6993 22.4265 43.6993C34.3446 43.6993 44.0061 34.0378 44.0061 22.1197Z" fill="url(#paint0_linear_16_121)"/>
<path d="M10.5463 21.6438C16.8218 18.8521 21.0064 17.0118 23.1001 16.1226C29.0783 13.5838 30.3205 13.1428 31.1302 13.1281C31.3084 13.125 31.7065 13.1701 31.9645 13.3838C32.1821 13.5642 32.242 13.8079 32.2708 13.979C32.2995 14.15 32.3352 14.5397 32.3068 14.8442C31.9828 18.3196 30.5811 26.7536 29.8679 30.6461C29.5661 32.2931 28.9719 32.8454 28.3967 32.8995C27.1468 33.0169 26.1975 32.0559 24.9866 31.2455C23.092 29.9775 22.0217 29.1882 20.1825 27.9508C18.0572 26.5207 19.4351 25.7347 20.6463 24.4503C20.9633 24.1141 26.4713 18.9989 26.5778 18.5349C26.5911 18.4769 26.6035 18.2606 26.4775 18.1464C26.3518 18.0321 26.1659 18.0712 26.0319 18.1023C25.8419 18.1463 22.8152 20.1889 16.9519 24.23C16.0927 24.8323 15.3146 25.1258 14.6174 25.1104C13.8488 25.0935 12.3703 24.6667 11.2711 24.3019C9.92304 23.8545 8.8516 23.6178 8.94489 22.858C8.99349 22.4623 9.5273 22.0575 10.5463 21.6438Z" fill="white"/>
</g>
<defs>
<linearGradient id="paint0_linear_16_121" x1="22.4264" y1="0.540039" x2="22.4264" y2="43.3791" gradientUnits="userSpaceOnUse">
<stop stop-color="#2AABEE"/>
<stop offset="1" stop-color="#229ED9"/>
</linearGradient>
<clipPath id="clip0_16_121">
<rect width="44" height="44" fill="white"/>
</clipPath>
</defs>
</svg>
