<svg width="35" height="35" viewBox="0 0 35 35" fill="none" xmlns="http://www.w3.org/2000/svg">
<path fill-rule="evenodd" clip-rule="evenodd" d="M17.5 0C27.165 0 35 7.83502 35 17.5C35 27.165 27.165 35 17.5 35C7.83502 35 0 27.165 0 17.5C0 7.83502 7.83502 0 17.5 0ZM22.1624 15.2822C22.0772 14.5907 21.8647 14.0477 21.4873 13.5668C20.9972 12.9476 20.3709 12.5767 19.4436 12.3568C18.8393 12.2101 18.5951 12.227 18.3766 12.4266C18.173 12.6136 18.1333 12.9886 18.2888 13.2314C18.3982 13.4077 18.5245 13.4708 18.8755 13.5397C19.343 13.6257 19.666 13.7374 19.9599 13.9054C20.5837 14.2655 20.8741 14.8291 20.9053 15.7416C20.9198 16.17 20.9568 16.3017 21.1064 16.4537C21.3838 16.7314 21.8774 16.6774 22.0867 16.345C22.1636 16.2197 22.1753 16.1652 22.1834 15.8743C22.1887 15.6942 22.181 15.4261 22.1624 15.2822ZM22.1707 11.0397C23.6537 12.2389 24.4823 13.9433 24.6055 16.0618C24.6573 16.8962 24.5884 17.168 24.294 17.3228C24.0284 17.4662 23.7275 17.419 23.521 17.2031C23.3842 17.0626 23.3317 16.8705 23.3337 16.5304C23.3397 15.5899 23.123 14.5397 22.7707 13.811C22.363 12.9628 21.7328 12.241 20.9399 11.7133C20.2454 11.2498 19.3263 10.9367 18.4352 10.8587C17.8572 10.8082 17.6508 10.7103 17.5398 10.4331C17.4711 10.2674 17.4892 9.98082 17.5698 9.85247C17.646 9.73412 17.817 9.60324 17.9379 9.56864C18.0659 9.53127 18.8126 9.59659 19.2181 9.67719C20.3252 9.90252 21.3351 10.3659 22.1707 11.0397ZM27.3089 24.2202C27.2675 24.0992 27.1708 23.9124 27.1017 23.8051C26.6665 23.148 24.3283 21.3181 23.1609 20.7196C22.4943 20.3772 22.0004 20.2631 21.6343 20.3703C21.2406 20.481 21.0333 20.6643 20.3736 21.4841C20.1077 21.8127 19.8349 22.1206 19.7623 22.169C19.5827 22.2935 19.2304 22.3939 18.9818 22.3939C18.405 22.3904 17.3584 22.0168 16.5537 21.5256C15.9286 21.1452 15.1273 20.4637 14.5125 19.7892C13.7872 18.9971 13.2933 18.2983 12.903 17.5097C12.3988 16.4962 12.271 15.877 12.4816 15.4238C12.5334 15.3097 12.6025 15.1886 12.6336 15.1505C12.6647 15.116 12.9894 14.8496 13.3485 14.5591C14.0531 13.9987 14.1671 13.8707 14.2983 13.4868C14.4641 12.999 14.4192 12.5009 14.1637 11.9994C13.9668 11.6189 13.4522 10.7887 13.0792 10.2525C12.5853 9.54692 11.3557 8.03877 11.1104 7.83463C10.6683 7.47492 10.102 7.41262 9.47676 7.6548C8.81714 7.91078 7.58063 8.90698 7.05218 9.60226C6.57555 10.2318 6.39256 10.678 6.3649 11.266C6.34074 11.7503 6.38217 11.9509 6.63776 12.5701C8.63753 17.4266 11.6216 21.3042 15.7213 24.3828C17.8627 25.9913 20.0835 27.2158 22.3872 28.0529C23.7307 28.5406 24.3145 28.5648 25.0018 28.1636C25.2919 27.9906 26.0103 27.2538 26.4109 26.7177C27.0741 25.8252 27.3193 25.4136 27.3884 25.085C27.4367 24.8602 27.3987 24.4693 27.3089 24.2202ZM26.4258 13.2712C26.8465 14.3671 27.0483 15.35 27.0925 16.5484C27.0996 16.7851 27.0963 17.2189 27.081 17.5127C27.049 18.0759 27.0185 18.1878 26.8563 18.3368C26.5957 18.5813 26.0877 18.523 25.895 18.2283C25.7944 18.0702 25.7803 17.9544 25.7998 17.2964C25.8557 15.3499 25.462 13.8258 24.5136 12.3019C23.3804 10.4735 21.6853 9.24185 19.481 8.63929C18.9189 8.48592 18.4451 8.39244 17.7084 8.29325C17.2285 8.23043 17.1234 8.20387 17.0049 8.13097C16.6471 7.90179 16.6423 7.32147 16.999 7.0888C17.1831 6.96598 17.3188 6.96049 17.9188 7.03733C19.6782 7.25719 21.248 7.77996 22.538 8.56994C23.4626 9.13693 24.0456 9.64628 24.7962 10.5384C25.5901 11.4898 26.0105 12.1932 26.4258 13.2712Z" fill="white"/>
</svg>
