<svg width="47" height="47" viewBox="0 0 47 47" fill="none" xmlns="http://www.w3.org/2000/svg">
<path fill-rule="evenodd" clip-rule="evenodd" d="M14.7734 41.8446L3.91329 45.3007L0.625008 46.3471L5.24451 32.7026C4.46929 31.2777 3.85524 29.7681 3.41775 28.2049C2.88704 26.3081 2.61925 24.3477 2.61925 22.3781C2.61925 16.5824 4.92519 11.0878 9.03596 7.0101C13.1601 2.91914 18.6958 0.652344 24.5036 0.652344C30.3096 0.652344 35.8423 2.92187 39.963 7.01341C44.072 11.0936 46.375 16.5894 46.375 22.3851C46.375 28.1798 44.0695 33.6738 39.9599 37.7512C35.8374 41.8415 30.3034 44.109 24.4971 44.109C22.655 44.109 20.8197 43.8816 19.0348 43.425C17.5628 43.0485 16.1342 42.5179 14.7733 41.8446L14.7734 41.8446Z" fill="#EEEEEE"/>
<path fill-rule="evenodd" clip-rule="evenodd" d="M44.6302 22.3854C44.6302 16.8664 42.3768 11.8694 38.7335 8.25182C35.0907 4.63471 30.0595 2.39746 24.5035 2.39746C18.9428 2.39746 13.9091 4.63395 10.2646 8.24911C6.61851 11.8659 4.36392 16.862 4.36392 22.3784C4.36392 24.2302 4.62003 26.0272 5.0979 27.735C5.57275 29.4319 6.2674 31.0385 7.14794 32.5214L3.65986 42.8239L3.38412 43.6384L4.20342 43.3777L14.9318 39.9635C16.3522 40.728 17.8718 41.3269 19.4672 41.7351C21.0746 42.1462 22.7592 42.3646 24.4971 42.3646C30.0554 42.3646 35.0874 40.128 38.731 36.513C42.376 32.8964 44.6302 27.9009 44.6302 22.3854L44.6302 22.3854Z" fill="#54CC61"/>
<path fill-rule="evenodd" clip-rule="evenodd" d="M21.2296 16.9282C21.1412 16.7501 20.6311 15.518 20.1608 14.3823C19.8603 13.6563 19.5736 12.9639 19.5174 12.83C18.9878 11.5674 18.4025 11.6055 17.9536 11.6346C17.9241 11.6365 17.8958 11.6384 17.8578 11.6384C17.7011 11.6384 17.5472 11.6287 17.3877 11.6186C17.1882 11.6059 16.9812 11.5928 16.7855 11.5928C16.5254 11.5928 16.1711 11.6467 15.798 11.8214C15.5213 11.9509 15.2358 12.1459 14.9746 12.4329C14.9365 12.4741 14.9078 12.5042 14.8766 12.537C14.255 13.1904 12.9 14.6146 12.9 17.35C12.9 20.2193 14.9692 22.948 15.2732 23.3488L15.2721 23.3496L15.275 23.3533L15.2784 23.3567C15.2903 23.372 15.3342 23.4363 15.3991 23.5312C16.1633 24.6488 19.6763 29.7867 25.0166 31.8725C29.8614 33.763 30.7381 33.5508 31.5212 33.3614C31.6545 33.3291 31.7846 33.2976 31.9254 33.2846C32.5595 33.225 33.5969 32.7909 34.4699 32.1813C35.1941 31.6756 35.8262 31.0365 36.0682 30.3636C36.2841 29.762 36.4062 29.203 36.4628 28.743C36.5451 28.0746 36.48 27.5488 36.3584 27.3457L36.3567 27.344C36.1718 27.0394 35.852 26.8884 35.3723 26.6619C35.2877 26.622 35.1972 26.5793 35.1103 26.5372L35.1106 26.5366C34.7798 26.3684 33.6354 25.8089 32.6571 25.3464C32.025 25.0476 31.4633 24.7908 31.2408 24.711C30.9279 24.5986 30.6553 24.5137 30.3631 24.5466C30.0317 24.584 29.7426 24.7547 29.4747 25.1605L29.4739 25.16C29.3393 25.3621 29.1022 25.6652 28.8431 25.9826C28.4328 26.4853 27.9432 27.0498 27.7345 27.2868V27.2886C27.6455 27.39 27.5686 27.4452 27.4933 27.4543C27.3887 27.467 27.245 27.4241 27.0461 27.3264C26.9189 27.2627 26.7949 27.2092 26.642 27.1432C25.8683 26.8094 24.3615 26.1593 22.6442 24.6388C22.0299 24.0951 21.4893 23.5007 21.0377 22.943C20.307 22.0404 19.8131 21.2362 19.6169 20.8975C19.462 20.6318 19.6341 20.4596 19.793 20.3007L19.7922 20.2998C19.9679 20.1243 20.1668 19.8853 20.3663 19.6455C20.4572 19.5362 20.5481 19.4269 20.6587 19.2996L20.6604 19.2979C20.9295 18.9849 21.041 18.757 21.1916 18.4494C21.2179 18.3959 21.2453 18.3398 21.273 18.2847L21.2747 18.283C21.4071 18.0161 21.441 17.7622 21.4163 17.5244C21.3934 17.303 21.3193 17.1055 21.2289 16.9285L21.2296 16.9282L21.2296 16.9282Z" fill="#FFFFFE"/>
</svg>
