<svg width="31" height="30" viewBox="0 0 31 30" fill="none" xmlns="http://www.w3.org/2000/svg">
<ellipse cx="15.5259" cy="14.5824" rx="14.6108" ry="14.5833" fill="black"/>
<path d="M7.64001 10.5262C7.5333 10.6327 7.44864 10.7591 7.39087 10.8983C7.33311 11.0375 7.30338 11.1868 7.30338 11.3375C7.30338 11.4882 7.33311 11.6374 7.39087 11.7766C7.44864 11.9159 7.5333 12.0423 7.64001 12.1487L15.3492 19.8579C15.434 19.9429 15.5347 20.0103 15.6456 20.0563C15.7565 20.1023 15.8754 20.126 15.9954 20.126C16.1155 20.126 16.2344 20.1023 16.3452 20.0563C16.4561 20.0103 16.5569 19.9429 16.6417 19.8579L24.3508 12.1487C24.8 11.6996 24.8 10.9754 24.3508 10.5262C23.9017 10.0771 23.1775 10.0771 22.7283 10.5262L16 17.2546L9.26251 10.5171C8.81334 10.0771 8.08917 10.0771 7.64001 10.5262Z" fill="#FFDE59"/>
</svg>
