<svg width="52" height="52" viewBox="0 0 52 52" fill="none" xmlns="http://www.w3.org/2000/svg">
<g clip-path="url(#clip0_38_179)">
<circle cx="26" cy="26" r="15" fill="#FCDB0F"/>
<path d="M0.166704 25.9998C0.166704 11.7398 11.74 0.166504 26 0.166504C40.26 0.166504 51.8334 11.7398 51.8334 25.9998C51.8334 40.2598 40.26 51.8332 26 51.8332C11.74 51.8332 0.166704 40.2598 0.166704 25.9998ZM26 33.2073V28.5832H33.75C35.1709 28.5832 36.3334 27.4207 36.3334 25.9998C36.3334 24.579 35.1709 23.4165 33.75 23.4165H26V18.7923C26 17.6298 24.605 17.0615 23.8042 17.8882L16.5967 25.0957C16.08 25.6123 16.08 26.4132 16.5967 26.9298L23.8042 34.1373C23.9863 34.3159 24.2172 34.4365 24.4678 34.484C24.7183 34.5315 24.9773 34.5038 25.2121 34.4043C25.447 34.3049 25.6471 34.1381 25.7873 33.9251C25.9275 33.7121 26.0015 33.4624 26 33.2073Z" fill="black"/>
</g>
<defs>
<clipPath id="clip0_38_179">
<rect width="52" height="52" fill="white" transform="matrix(-1 0 0 1 52 0)"/>
</clipPath>
</defs>
</svg>
