<svg width="45" height="45" viewBox="0 0 45 45" fill="none" xmlns="http://www.w3.org/2000/svg">
<path fill-rule="evenodd" clip-rule="evenodd" d="M13.6238 1.08726C15.9209 0.981508 16.6533 0.958008 22.5048 0.958008C28.3563 0.958008 29.0887 0.983466 31.3839 1.08726C33.679 1.19105 35.2457 1.55726 36.6165 2.08797C38.052 2.63042 39.3543 3.47838 40.4314 4.57505C41.528 5.65017 42.374 6.95051 42.9145 8.38792C43.4472 9.75876 43.8115 11.3254 43.9172 13.6167C44.023 15.9177 44.0465 16.6501 44.0465 22.4997C44.0465 28.3512 44.021 29.0836 43.9172 31.3807C43.8134 33.672 43.4472 35.2386 42.9145 36.6095C42.374 38.0471 41.5266 39.3496 40.4314 40.4263C39.3543 41.5229 38.052 42.3689 36.6165 42.9094C35.2457 43.4421 33.679 43.8063 31.3878 43.9121C29.0887 44.0178 28.3563 44.0413 22.5048 44.0413C16.6533 44.0413 15.9209 44.0159 13.6238 43.9121C11.3325 43.8083 9.76583 43.4421 8.395 42.9094C6.95743 42.3689 5.65494 41.5215 4.57821 40.4263C3.48229 39.3505 2.6342 38.0486 2.09309 36.6114C1.56238 35.2406 1.19813 33.6739 1.09238 31.3827C0.986627 29.0816 0.963127 28.3492 0.963127 22.4997C0.963127 16.6482 0.988585 15.9158 1.09238 13.6206C1.19617 11.3254 1.56238 9.75876 2.09309 8.38792C2.635 6.95067 3.48373 5.64883 4.58017 4.57309C5.65537 3.47741 6.95655 2.62933 8.39304 2.08797C9.76388 1.55726 11.3305 1.19301 13.6218 1.08726H13.6238ZM31.2096 4.96476C28.9379 4.86097 28.2564 4.83942 22.5048 4.83942C16.7532 4.83942 16.0717 4.86097 13.8 4.96476C11.6987 5.06072 10.559 5.41126 9.79913 5.70697C8.7945 6.09863 8.07579 6.56276 7.32184 7.31672C6.60713 8.01203 6.05711 8.85848 5.71209 9.79401C5.41638 10.5538 5.06584 11.6936 4.96988 13.7949C4.86609 16.0665 4.84454 16.748 4.84454 22.4997C4.84454 28.2513 4.86609 28.9328 4.96988 31.2045C5.06584 33.3058 5.41638 34.4455 5.71209 35.2053C6.05675 36.1395 6.60704 36.9874 7.32184 37.6826C8.01704 38.3974 8.865 38.9477 9.79913 39.2924C10.559 39.5881 11.6987 39.9386 13.8 40.0346C16.0717 40.1384 16.7512 40.1599 22.5048 40.1599C28.2584 40.1599 28.9379 40.1384 31.2096 40.0346C33.3109 39.9386 34.4506 39.5881 35.2105 39.2924C36.2151 38.9007 36.9338 38.4366 37.6878 37.6826C38.4025 36.9874 38.9528 36.1395 39.2975 35.2053C39.5932 34.4455 39.9438 33.3058 40.0397 31.2045C40.1435 28.9328 40.165 28.2513 40.165 22.4997C40.165 16.748 40.1435 16.0665 40.0397 13.7949C39.9438 11.6936 39.5932 10.5538 39.2975 9.79401C38.9058 8.78938 38.4417 8.07067 37.6878 7.31672C36.9924 6.60206 36.146 6.05205 35.2105 5.70697C34.4506 5.41126 33.3109 5.06072 31.2096 4.96476ZM19.7533 29.1404C21.29 29.78 23.001 29.8664 24.5942 29.3846C26.1874 28.9029 27.5639 27.883 28.4887 26.4991C29.4135 25.1152 29.8291 23.4531 29.6646 21.7968C29.5 20.1405 28.7656 18.5927 27.5867 17.4178C26.8351 16.6667 25.9264 16.0916 24.9259 15.7339C23.9255 15.3762 22.8581 15.2448 21.8008 15.349C20.7434 15.4533 19.7223 15.7908 18.811 16.3371C17.8997 16.8833 17.1208 17.6249 16.5305 18.5083C15.9402 19.3917 15.5531 20.395 15.3971 21.446C15.241 22.497 15.32 23.5695 15.6282 24.5863C15.9364 25.6031 16.4662 26.539 17.1795 27.3264C17.8928 28.1139 18.7719 28.7334 19.7533 29.1404ZM14.6754 14.6703C15.7036 13.6421 16.9242 12.8265 18.2675 12.27C19.6109 11.7136 21.0507 11.4272 22.5048 11.4272C23.9589 11.4272 25.3987 11.7136 26.742 12.27C28.0854 12.8265 29.306 13.6421 30.3342 14.6703C31.3624 15.6984 32.178 16.9191 32.7344 18.2624C33.2909 19.6058 33.5773 21.0456 33.5773 22.4997C33.5773 23.9537 33.2909 25.3935 32.7344 26.7369C32.178 28.0803 31.3624 29.3009 30.3342 30.3291C28.2577 32.4056 25.4414 33.5721 22.5048 33.5721C19.5682 33.5721 16.7519 32.4056 14.6754 30.3291C12.5989 28.2526 11.4323 25.4363 11.4323 22.4997C11.4323 19.5631 12.5989 16.7467 14.6754 14.6703ZM36.033 13.0762C36.2878 12.8358 36.4917 12.5468 36.6328 12.2262C36.7739 11.9056 36.8492 11.56 36.8543 11.2097C36.8594 10.8595 36.7942 10.5118 36.6625 10.1873C36.5309 9.86269 36.3354 9.56784 36.0877 9.32017C35.84 9.07249 35.5452 8.87703 35.2206 8.74535C34.8961 8.61368 34.5484 8.54846 34.1981 8.55357C33.8479 8.55867 33.5023 8.634 33.1817 8.77508C32.8611 8.91616 32.5721 9.12014 32.3317 9.37492C31.8643 9.87044 31.6084 10.5286 31.6183 11.2097C31.6282 11.8909 31.9032 12.5413 32.3849 13.023C32.8666 13.5047 33.517 13.7797 34.1981 13.7896C34.8793 13.7995 35.5374 13.5436 36.033 13.0762Z" fill="#FCDB0F"/>
</svg>
