<svg width="43" height="43" viewBox="0 0 43 43" fill="none" xmlns="http://www.w3.org/2000/svg">
<g clip-path="url(#clip0_344_160)">
<path d="M0 20.64C0 10.9102 0 6.04532 3.02266 3.02266C6.04532 0 10.9102 0 20.64 0H22.36C32.0898 0 36.9546 0 39.9774 3.02266C43 6.04532 43 10.9102 43 20.64V22.36C43 32.0898 43 36.9546 39.9774 39.9774C36.9546 43 32.0898 43 22.36 43H20.64C10.9102 43 6.04532 43 3.02266 39.9774C0 36.9546 0 32.0898 0 22.36V20.64Z" fill="#FCDB0F"/>
<path d="M22.8058 30.9604C12.8156 30.9604 7.11743 24.1811 6.88 12.9004H11.8842C12.0486 21.1802 15.7377 24.6873 18.6599 25.4104V12.9004H23.3721V20.0412C26.2578 19.7339 29.2891 16.4799 30.3119 12.9004H35.024C34.2387 17.3114 30.9512 20.5655 28.6135 21.9033C30.9512 22.988 34.6954 25.8262 36.12 30.9604H30.933C29.8189 27.5256 27.0431 24.8681 23.3721 24.5065V30.9604H22.8058Z" fill="black"/>
</g>
<defs>
<clipPath id="clip0_344_160">
<rect width="43" height="43" fill="white"/>
</clipPath>
</defs>
</svg>
